HIERARCHY
ROOT Hips
{
  OFFSET 5.84602e-005 68.8428 3.50346
  CHANNELS 6 Xposition Yposition Zposition Zrotation Xrotation Yrotation
  JOINT Spine
  {
    OFFSET 0 8.597 -4.6522
    CHANNELS 3 Zrotation Xrotation Yrotation
    JOINT Spine1
    {
      OFFSET 0 7.8454 0.4098
      CHANNELS 3 Zrotation Xrotation Yrotation
      JOINT Spine2
      {
        OFFSET 0 9.7078 -2.1609
        CHANNELS 3 Zrotation Xrotation Yrotation
        JOINT Neck
        {
          OFFSET 0 21.8761 -0.4549
          CHANNELS 3 Zrotation Xrotation Yrotation
          JOINT Head
          {
            OFFSET 0 12.3537 3.3602
            CHANNELS 3 Zrotation Xrotation Yrotation
            End Site
            {
              OFFSET 0.0001 18.9506 0.5657
            }
          }
        }
        JOINT LeftShoulder
        {
          OFFSET 2.2086 21.1115 7.2329
          CHANNELS 3 Zrotation Xrotation Yrotation
          JOINT LeftArm
          {
            OFFSET 13.1193 3.0282 -4.8998
            CHANNELS 3 Zrotation Xrotation Yrotation
            JOINT LeftForeArm
            {
              OFFSET 27.4081 -0.0973053 -0.2375
              CHANNELS 3 Zrotation Xrotation Yrotation
              JOINT LeftHand
              {
                OFFSET 22.8641 0.0662994 -0.1369
                CHANNELS 3 Zrotation Xrotation Yrotation
                JOINT LeftHandIndex1
                {
                  OFFSET 8.8614 0.775009 2.4612
                  CHANNELS 3 Zrotation Xrotation Yrotation
                  JOINT LeftHandIndex2
                  {
                    OFFSET 3.3146 -0.808304 0.5841
                    CHANNELS 3 Zrotation Xrotation Yrotation
                    JOINT LeftHandIndex3
                    {
                      OFFSET 2.2628 -0.552002 0.3989
                      CHANNELS 3 Zrotation Xrotation Yrotation
                      End Site
                      {
                        OFFSET 1.6102 -0.4807 0.2612
                      }
                    }
                  }
                }
                JOINT LeftHandMiddle1
                {
                  OFFSET 8.9937 0.895004 0.2143
                  CHANNELS 3 Zrotation Xrotation Yrotation
                  JOINT LeftHandMiddle2
                  {
                    OFFSET 4.0984 0.0113983 -0.0242
                    CHANNELS 3 Zrotation Xrotation Yrotation
                    JOINT LeftHandMiddle3
                    {
                      OFFSET 2.2716 0.00689697 -0.0138001
                      CHANNELS 3 Zrotation Xrotation Yrotation
                      End Site
                      {
                        OFFSET 2.0404 -0.1441 0.0027
                      }
                    }
                  }
                }
                JOINT LeftHandRing1
                {
                  OFFSET 8.5234 0.597198 -2.0164
                  CHANNELS 3 Zrotation Xrotation Yrotation
                  JOINT LeftHandRing2
                  {
                    OFFSET 3.7188 -0.188293 -0.2328
                    CHANNELS 3 Zrotation Xrotation Yrotation
                    JOINT LeftHandRing3
                    {
                      OFFSET 2.1191 -0.106598 -0.1332
                      CHANNELS 3 Zrotation Xrotation Yrotation
                      End Site
                      {
                        OFFSET 1.8737 -0.2304 -0.0886
                      }
                    }
                  }
                }
                JOINT LeftHandPinky1
                {
                  OFFSET 7.9094 -0.601089 -3.4825
                  CHANNELS 3 Zrotation Xrotation Yrotation
                  JOINT LeftHandPinky2
                  {
                    OFFSET 2.2874 -0.477005 -0.6314
                    CHANNELS 3 Zrotation Xrotation Yrotation
                    JOINT LeftHandPinky3
                    {
                      OFFSET 1.6774 -0.349396 -0.4633
                      CHANNELS 3 Zrotation Xrotation Yrotation
                      End Site
                      {
                        OFFSET 1.4888 -0.4091 -0.3416
                      }
                    }
                  }
                }
                JOINT LeftHandThumb1
                {
                  OFFSET 1.833 -1.3875 1.3896
                  CHANNELS 3 Zrotation Xrotation Yrotation
                  JOINT LeftHandThumb2
                  {
                    OFFSET 3.4129 -1.121 2.5732
                    CHANNELS 3 Zrotation Xrotation Yrotation
                    JOINT LeftHandThumb3
                    {
                      OFFSET 2.2474 -0.804199 1.6192
                      CHANNELS 3 Zrotation Xrotation Yrotation
                      End Site
                      {
                        OFFSET 1.6527 -0.5689 1.1317
                      }
                    }
                  }
                }
              }
            }
          }
        }
        JOINT RightShoulder
        {
          OFFSET -2.2086 21.1115 7.2329
          CHANNELS 3 Zrotation Xrotation Yrotation
          JOINT RightArm
          {
            OFFSET -13.1216 3.0287 -4.9007
            CHANNELS 3 Zrotation Xrotation Yrotation
            JOINT RightForeArm
            {
              OFFSET -27.4081 -0.0973053 -0.2375
              CHANNELS 3 Zrotation Xrotation Yrotation
              JOINT RightHand
              {
                OFFSET -22.8641 0.0664063 -0.1369
                CHANNELS 3 Zrotation Xrotation Yrotation
                JOINT RightHandIndex1
                {
                  OFFSET -8.8614 0.774994 2.4612
                  CHANNELS 3 Zrotation Xrotation Yrotation
                  JOINT RightHandIndex2
                  {
                    OFFSET -3.3146 -0.808304 0.5841
                    CHANNELS 3 Zrotation Xrotation Yrotation
                    JOINT RightHandIndex3
                    {
                      OFFSET -2.2628 -0.552002 0.3989
                      CHANNELS 3 Zrotation Xrotation Yrotation
                      End Site
                      {
                        OFFSET -1.6102 -0.4807 0.2612
                      }
                    }
                  }
                }
                JOINT RightHandMiddle1
                {
                  OFFSET -8.9937 0.894989 0.2143
                  CHANNELS 3 Zrotation Xrotation Yrotation
                  JOINT RightHandMiddle2
                  {
                    OFFSET -4.0984 0.0113983 -0.0242
                    CHANNELS 3 Zrotation Xrotation Yrotation
                    JOINT RightHandMiddle3
                    {
                      OFFSET -2.2716 0.00691223 -0.0138001
                      CHANNELS 3 Zrotation Xrotation Yrotation
                      End Site
                      {
                        OFFSET -2.0404 -0.1441 0.0027
                      }
                    }
                  }
                }
                JOINT RightHandRing1
                {
                  OFFSET -8.5234 0.597198 -2.0164
                  CHANNELS 3 Zrotation Xrotation Yrotation
                  JOINT RightHandRing2
                  {
                    OFFSET -3.7188 -0.188309 -0.2328
                    CHANNELS 3 Zrotation Xrotation Yrotation
                    JOINT RightHandRing3
                    {
                      OFFSET -2.1191 -0.106598 -0.1332
                      CHANNELS 3 Zrotation Xrotation Yrotation
                      End Site
                      {
                        OFFSET -1.8737 -0.2304 -0.0886
                      }
                    }
                  }
                }
                JOINT RightHandPinky1
                {
                  OFFSET -7.9094 -0.601105 -3.4825
                  CHANNELS 3 Zrotation Xrotation Yrotation
                  JOINT RightHandPinky2
                  {
                    OFFSET -2.2874 -0.477005 -0.6314
                    CHANNELS 3 Zrotation Xrotation Yrotation
                    JOINT RightHandPinky3
                    {
                      OFFSET -1.6774 -0.349396 -0.4633
                      CHANNELS 3 Zrotation Xrotation Yrotation
                      End Site
                      {
                        OFFSET -1.4888 -0.4091 -0.3416
                      }
                    }
                  }
                }
                JOINT RightHandThumb1
                {
                  OFFSET -1.833 -1.38751 1.3896
                  CHANNELS 3 Zrotation Xrotation Yrotation
                  JOINT RightHandThumb2
                  {
                    OFFSET -3.41299 -1.12099 2.5732
                    CHANNELS 3 Zrotation Xrotation Yrotation
                    JOINT RightHandThumb3
                    {
                      OFFSET -2.24741 -0.804108 1.6192
                      CHANNELS 3 Zrotation Xrotation Yrotation
                      End Site
                      {
                        OFFSET -1.6527 -0.5689 1.1317
                      }
                    }
                  }
                }
              }
            }
          }
        }
      }
    }
  }
  JOINT RightUpLeg
  {
    OFFSET -9.1966 3.8861 -0.7581
    CHANNELS 3 Zrotation Xrotation Yrotation
    JOINT RightLeg
    {
      OFFSET -0.7359 -41.0265 0
      CHANNELS 3 Zrotation Xrotation Yrotation
      JOINT RightFoot
      {
        OFFSET 0 -40.2855 0
        CHANNELS 3 Zrotation Xrotation Yrotation
        JOINT RightToeBase
        {
          OFFSET 0 -5.6122 11.7359
          CHANNELS 3 Zrotation Xrotation Yrotation
          End Site
          {
            OFFSET 0 0 7.8731
          }
        }
      }
    }
  }
  JOINT LeftUpLeg
  {
    OFFSET 9.1965 3.8864 -0.7581
    CHANNELS 3 Zrotation Xrotation Yrotation
    JOINT LeftLeg
    {
      OFFSET 0.7359 -41.0268 0
      CHANNELS 3 Zrotation Xrotation Yrotation
      JOINT LeftFoot
      {
        OFFSET 0 -40.2855 0
        CHANNELS 3 Zrotation Xrotation Yrotation
        JOINT LeftToeBase
        {
          OFFSET 0 -5.6122 11.7359
          CHANNELS 3 Zrotation Xrotation Yrotation
          End Site
          {
            OFFSET 0 0 7.8731
          }
        }
      }
    }
  }
}
MOTION
Frames:	7
Frame Time:	0.0333333
5.84602e-005 68.8428 3.50346 0 0 -0 0 0 -0 0 0 -0 0 0 -0 0 0 -0 0 0 -0 0 0 -0 0 0 -0 0 0 -0 0 0 -0 0 0 -0 0 0 -0 0 0 -0 0 0 -0 -0.0146107 -8.87603e-005 -2.63497e-007 2.99804e-018 -2.42657e-020 -1.42182e-022 0 0 -0 -0.0187562 -0.001176 5.858e-005 5.06224e-018 3.88251e-019 1.21329e-020 0 0 -0 -0.012269 -0.00324817 0.000675346 -1.74678e-018 3.88251e-019 -0 0 0 -0 0 0 -0 0 0 -0 0 0 -0 0 0 -0 0 0 -0 0 0 -0 0 0 -0 0 0 -0 0 0 -0 0 0 -0 0.0149955 -9.10982e-005 2.64101e-007 -9.69331e-018 1.21329e-020 -4.7394e-023 0 0 -0 0.0189956 -0.00119102 -5.96516e-005 -5.41541e-019 0 2.42657e-020 0 0 -0 0.0122698 -0.00324857 -0.000673756 -2.00796e-019 0 -1.94126e-019 0 0 -0 0 0 -0 0 0 -0 3.39842 1.33031 -0.0637918 -5.65207e-008 0.834868 -0.000436188 -3.39935 -2.16518 -0.0642563 -8.89002e-024 -1.18485e-023 -1.48106e-024 -3.39844 1.35642 0.0640283 -3.18788e-007 0.782166 -0.000588827 3.39931 -2.13858 0.0634662 1.1399e-023 0 -0 
-0.00528758 50.3657 5.68887 -0 -22.8788 -0 -0.109273 -0.0556059 -0.0916205 -0.218635 -0.111053 -0.183347 -0.218634 -0.111048 -0.183347 -0.00188376 -0.0589707 0.680081 -0.00161707 -0.234495 0.603394 -7.69935 -0.0608333 -1.11009 -6.6442 0.555228 -2.54611 -18.9091 2.60258 -4.61274 -2.66482 11.4841 2.26756 -5.96354e-016 -7.95139e-016 -0 5.11171e-006 1.33863e-006 2.63898e-006 3.18055e-015 2.78299e-015 -0 -5.96354e-016 -7.95139e-016 -0 -0.0145731 -8.76698e-005 5.80017e-007 -4.77083e-015 3.97569e-016 -3.18055e-015 -5.96354e-016 -7.95139e-016 -0 -0.0187123 -0.00117278 5.97543e-005 8.74653e-015 -3.97569e-016 -6.36111e-015 -5.96354e-016 -7.95139e-016 -0 -0.0121802 -0.0032235 0.000670741 -5.48912e-007 -1.22423e-007 -4.52213e-007 -5.96354e-016 -7.95139e-016 -0 5.11171e-006 1.33863e-006 2.63898e-006 3.18055e-015 2.78299e-015 -0 -7.46853 -0.00984641 -0.15902 3.34661 11.3013 0.618002 8.78532 7.27762 11.0212 4.01181 -0.105821 -6.31448 9.93923e-017 0 -0 1.10348e-032 7.95139e-016 -7.95139e-016 -1.63997e-015 7.95139e-016 -1.59028e-015 9.93923e-017 0 -0 0.0149587 -9.04041e-005 2.39494e-007 4.47266e-016 -7.95139e-016 -1.59028e-015 9.93923e-017 0 -0 0.0189442 -0.0011881 -5.94906e-005 -1.2921e-015 0 -0 9.93923e-017 0 -0 0.012374 -0.00327578 -0.000681558 -9.93923e-017 0 -7.95139e-016 9.93923e-017 0 -0 1.10348e-032 7.95139e-016 -7.95139e-016 -1.63997e-015 7.95139e-016 -1.59028e-015 0.686387 2.00165 -0.132442 0.596423 1.06429 -0.248253 -3.40229 6.20374 0.876093 3.35449e-016 0 -4.96962e-017 1.29996 -1.37389 1.93013 -2.93922 9.20321 2.91694 3.40156 5.86667 -0.866701 -5.38797e-008 2.55281e-006 -4.32489e-007 
-0.00792353 31.4118 7.01523 -0 -47.2277 -0 -0.226329 -0.115443 -0.189161 -0.45304 -0.230137 -0.378778 -0.45304 -0.230132 -0.378777 0.000913476 -0.117055 1.36222 0.00680019 -0.46924 1.20744 -15.894 -0.124757 -2.28974 -13.6612 1.14243 -5.25662 -38.5732 5.31551 -9.55347 -6.58136 23.6436 5.00844 3.89963e-007 -6.67527e-007 -3.47082e-007 -3.45003e-006 -2.24797e-007 1.10987e-006 3.89963e-007 -6.67527e-007 -3.47082e-007 3.89963e-007 -6.67527e-007 -3.47082e-007 -0.0145653 -8.70396e-005 -8.66156e-006 3.89976e-007 -6.67482e-007 -3.47167e-007 3.89963e-007 -6.67527e-007 -3.47082e-007 -0.0187785 -0.00117404 5.83191e-005 3.89976e-007 -6.67469e-007 -3.47195e-007 3.89963e-007 -6.67527e-007 -3.47082e-007 -0.0122528 -0.00324308 0.000671675 3.8996e-007 -6.67489e-007 -3.47165e-007 3.89963e-007 -6.67527e-007 -3.47082e-007 -3.45003e-006 -2.24797e-007 1.10987e-006 3.89963e-007 -6.67527e-007 -3.47082e-007 -15.415 -0.0195946 -0.326497 6.61879 23.3242 1.36232 15.059 14.1052 23.3071 8.256 -0.214109 -13.0348 8.48879e-007 1.96046e-007 -3.69856e-007 1.68755e-006 5.9164e-007 -1.08194e-006 8.41448e-007 -7.214e-008 -6.74842e-008 8.48879e-007 1.96046e-007 -3.69856e-007 0.0150768 -9.18005e-005 1.3425e-006 8.41434e-007 -7.21488e-008 -6.74754e-008 8.48879e-007 1.96046e-007 -3.69856e-007 0.0190041 -0.00119153 -5.94633e-005 8.4143e-007 -7.21496e-008 -6.7481e-008 8.48879e-007 1.96046e-007 -3.69856e-007 0.0122524 -0.0032431 -0.000674013 8.41435e-007 -7.21392e-008 -6.74997e-008 8.48879e-007 1.96046e-007 -3.69856e-007 1.68755e-006 5.9164e-007 -1.08194e-006 8.41448e-007 -7.214e-008 -6.74842e-008 -2.20484 2.25607 -0.20019 1.23135 2.18676 -0.53947 -3.70461 14.6861 1.92879 2.58092e-008 -3.85666e-009 1.03477e-007 6.51264 -4.4579 3.9165 -6.97829 18.5335 6.26284 3.71826 14.1522 -1.91453 -1.05016e-007 6.99358e-009 1.76162e-008 
-0.00736863 14.2608 7.13044 -0 -69.6165 -0 -0.334062 -0.170739 -0.278383 -0.668955 -0.339853 -0.55776 -0.668955 -0.339847 -0.55776 0.00197381 -0.17598 2.04268 0.0133656 -0.70338 1.81072 -23.4326 -0.183809 -3.37552 -20.0643 1.67569 -7.75036 -56.2393 7.70676 -14.1517 -11.442 34.6927 8.23289 1.28711e-006 -9.47818e-007 -5.61042e-007 -1.28711e-006 9.47818e-007 5.61042e-007 1.28711e-006 -9.47818e-007 -5.61042e-007 1.28711e-006 -9.47818e-007 -5.61042e-007 -0.0145904 -8.9623e-005 -3.57867e-006 1.28714e-006 -9.47746e-007 -5.61163e-007 1.28711e-006 -9.47818e-007 -5.61042e-007 -0.0187718 -0.00117743 6.20567e-005 1.28714e-006 -9.47724e-007 -5.6121e-007 1.28711e-006 -9.47818e-007 -5.61042e-007 -0.0122852 -0.00324923 0.000672673 1.28711e-006 -9.47759e-007 -5.61181e-007 1.28711e-006 -9.47818e-007 -5.61042e-007 -1.28711e-006 9.47818e-007 5.61042e-007 1.28711e-006 -9.47818e-007 -5.61042e-007 -22.7231 -0.0289578 -0.481576 9.29 34.3697 2.23423 18.1991 18.708 35.3848 12.1363 -0.305921 -19.2142 -1.19271e-015 0 -6.36111e-015 -2.38542e-015 -1.59028e-015 -3.18055e-015 -0 -3.18055e-015 -0 -1.19271e-015 0 -6.36111e-015 0.0149939 -9.26552e-005 4.25049e-006 3.97569e-016 -4.77083e-015 -3.18055e-015 -1.19271e-015 0 -6.36111e-015 0.018976 -0.00118921 -5.61107e-005 1.98785e-015 1.59028e-015 -6.36111e-015 -1.19271e-015 0 -6.36111e-015 0.0123817 -0.00327679 -0.00068134 2.38542e-015 1.59028e-015 -3.18055e-015 -1.19271e-015 0 -6.36111e-015 -2.38542e-015 -1.59028e-015 -3.18055e-015 -0 -3.18055e-015 -0 -4.8668 2.46489 -0.262285 1.81561 3.2764 -0.82153 -4.29069 22.4398 3.02316 -2.2796e-007 2.41072e-006 -5.56814e-008 11.7082 -7.31862 5.7444 -12.087 27.1838 9.98782 4.50665 21.6032 -3.03448 -3.77462e-007 -8.17722e-009 -4.94024e-007 
-0.00526951 1.14936 6.48979 -0 -86.6151 -0 -0.416118 -0.213007 -0.345991 -0.833524 -0.423484 -0.693526 -0.833523 -0.423491 -0.693526 -0.000438825 -0.23369 2.72169 0.00613533 -0.93609 2.4118 -29.1575 -0.22846 -4.19969 -24.8948 2.07434 -9.64507 -69.3907 9.42601 -17.6916 -16.2854 42.9276 11.5257 7.83119e-007 -3.01491e-007 -1.35075e-007 -7.83119e-007 3.01491e-007 1.35075e-007 -2.64834e-031 -4.77083e-015 -3.18055e-015 7.83119e-007 -3.01491e-007 -1.35075e-007 -0.0146072 -8.78183e-005 6.83754e-007 -1.59028e-015 0 -3.18055e-015 7.83119e-007 -3.01491e-007 -1.35075e-007 -0.0187544 -0.0011734 5.70389e-005 8.82781e-032 1.59028e-015 -3.18055e-015 7.83119e-007 -3.01491e-007 -1.35075e-007 -0.0122582 -0.00324534 0.000674878 1.59028e-015 7.95139e-015 1.27222e-014 7.83119e-007 -3.01491e-007 -1.35075e-007 -7.83119e-007 3.01491e-007 1.35075e-007 -2.64834e-031 -4.77083e-015 -3.18055e-015 -28.2716 -0.0360211 -0.599097 11.0062 42.7447 3.12479 19.1948 20.6697 44.9577 15.069 -0.368482 -23.906 1.63615e-006 -2.62763e-007 -2.93466e-007 1.63615e-006 -2.62763e-007 -2.93466e-007 1.63615e-006 -2.62763e-007 -2.93466e-007 1.63615e-006 -2.62763e-007 -2.93466e-007 0.0150058 -8.85952e-005 -4.63697e-006 1.63611e-006 -2.62801e-007 -2.93433e-007 1.63615e-006 -2.62763e-007 -2.93466e-007 0.0190438 -0.00119476 -6.06307e-005 1.63609e-006 -2.62808e-007 -2.93439e-007 1.63615e-006 -2.62763e-007 -2.93466e-007 0.0122461 -0.00324175 -0.000672361 1.63611e-006 -2.62777e-007 -2.93482e-007 1.63615e-006 -2.62763e-007 -2.93466e-007 1.63615e-006 -2.62763e-007 -2.93466e-007 1.63615e-006 -2.62763e-007 -2.93466e-007 -6.89005 2.55277 -0.31048 2.26016 4.28003 -1.05205 -4.96855 28.2065 3.98241 9.52223e-007 1.83311e-008 1.51907e-008 15.772 -9.60293 7.16994 -16.7068 33.8798 13.3776 5.26944 27.124 -4.00878 1.06863e-006 -1.33975e-007 5.45847e-007 
-0.00368731 -5.57527 5.94281 -180 -84.7897 -180 -0.45764 -0.23443 -0.380087 -0.916836 -0.46585 -0.762044 -0.916836 -0.465816 -0.762043 -0.009564 -0.29132 3.39769 -0.0249013 -1.16633 3.00935 -32.0529 -0.251006 -4.61662 -27.3271 2.27342 -10.6036 -75.9561 10.2562 -19.5 -19.2695 47.012 13.6319 7.95139e-016 1.98785e-015 -3.18055e-015 1.59028e-015 3.97569e-016 -0 7.95139e-016 3.97569e-016 -3.18055e-015 7.95139e-016 1.98785e-015 -3.18055e-015 -0.014618 -8.92205e-005 -2.43672e-006 -9.93923e-016 -1.98785e-015 -6.36111e-015 7.95139e-016 1.98785e-015 -3.18055e-015 -0.0187486 -0.00117569 5.40468e-005 -1.39198e-007 -1.54428e-007 -5.15094e-008 7.95139e-016 1.98785e-015 -3.18055e-015 -0.012274 -0.00324983 0.000671947 1.39149e-015 -3.97569e-016 6.36111e-015 7.95139e-016 1.98785e-015 -3.18055e-015 1.59028e-015 3.97569e-016 -0 7.95139e-016 3.97569e-016 -3.18055e-015 -31.0773 -0.0396086 -0.658719 11.7263 46.9736 3.69742 19.3709 21.0674 49.8375 16.5478 -0.397286 -26.2784 1.59028e-015 0 -0 0 3.18055e-015 -0 -5.56597e-015 3.18055e-015 -0 1.59028e-015 0 -0 0.0150012 -8.92223e-005 -2.67669e-006 -3.97569e-015 9.54166e-015 3.18055e-015 1.59028e-015 0 -0 0.0190301 -0.00119036 -6.67137e-005 -3.97569e-015 -3.18055e-015 -3.18055e-015 1.59028e-015 0 -0 0.012233 -0.00323968 -0.000673362 -5.56597e-015 9.54166e-015 -3.18055e-015 1.59028e-015 0 -0 0 3.18055e-015 -0 -5.56597e-015 3.18055e-015 -0 -7.91481 2.5363 -0.335857 2.48579 4.9223 -1.17782 -5.39862 31.0417 4.52277 -2.4297e-007 3.21428e-006 2.09991e-007 17.8864 -10.7806 7.9067 -19.3968 37.2386 15.3689 5.74483 29.9034 -4.56173 1.07321e-006 4.50096e-006 8.95587e-007 
-0.00342323 -6.57757 5.85012 -180 -83.518 -180 -0.463803 -0.237618 -0.385142 -0.929206 -0.472113 -0.772205 -0.929206 -0.472115 -0.772205 -0.0237859 -0.347186 4.07118 -0.0754886 -1.39385 3.60376 -32.4812 -0.25434 -4.67823 -27.6864 2.3027 -10.7455 -76.9227 10.3765 -19.7686 -19.7491 47.6105 13.9764 -1.2921e-015 -1.59028e-015 -0 -1.68967e-015 -1.98785e-015 -0 -6.95746e-016 -3.97569e-016 3.18055e-015 -1.2921e-015 -1.59028e-015 -0 -0.0146148 -8.86599e-005 -3.61164e-006 -4.14331e-007 9.84062e-008 1.29885e-008 -1.2921e-015 -1.59028e-015 -0 -0.018765 -0.00117633 5.74144e-005 -4.14332e-007 9.84057e-008 1.29961e-008 -1.2921e-015 -1.59028e-015 -0 -0.0122708 -0.00324856 0.000671092 -4.14329e-007 9.84081e-008 1.29981e-008 -1.2921e-015 -1.59028e-015 -0 -1.68967e-015 -1.98785e-015 -0 -6.95746e-016 -3.97569e-016 3.18055e-015 -31.4923 -0.0401348 -0.667457 11.8221 47.5988 3.79147 19.3835 21.0904 50.5574 16.7663 -0.401362 -26.6294 -0 0 3.18055e-015 1.59028e-015 3.18055e-015 1.27222e-014 -0 0 3.18055e-015 -0 0 3.18055e-015 0.0150229 -9.37255e-005 8.05913e-007 1.76556e-031 -3.18055e-015 3.18055e-015 -0 0 3.18055e-015 0.0190189 -0.00119225 -6.20242e-005 -4.77083e-015 9.54166e-015 -3.18055e-015 -0 0 3.18055e-015 0.0123461 -0.00326925 -0.00067983 3.18055e-015 1.27222e-014 3.18055e-015 -0 0 3.18055e-015 1.59028e-015 3.18055e-015 1.27222e-014 -0 0 3.18055e-015 -8.06659 2.52942 -0.339692 2.51925 5.02687 -1.19709 -5.46763 31.4557 4.60636 -6.50328e-007 -5.72637e-007 2.90591e-007 18.2026 -10.9557 8.01676 -19.8179 37.7315 15.6826 5.82115 30.3151 -4.64774 1.59028e-015 0 7.95139e-016 
